<?xml version="1.0" encoding="utf-8"?>
<!-- Generator: Adobe Illustrator 17.1.0, SVG Export Plug-In . SVG Version: 6.00 Build 0)  -->
<!DOCTYPE svg PUBLIC "-//W3C//DTD SVG 1.1//EN" "http://www.w3.org/Graphics/SVG/1.1/DTD/svg11.dtd">
<svg version="1.1" id="Layer_1" xmlns="http://www.w3.org/2000/svg" xmlns:xlink="http://www.w3.org/1999/xlink" x="0px" y="0px"
	 viewBox="0 0 40 40" enable-background="new 0 0 40 40" xml:space="preserve">
<linearGradient id="SVGID_1_" gradientUnits="userSpaceOnUse" x1="20" y1="42" x2="20" y2="2" gradientTransform="matrix(1 0 0 -1 0 42)">
	<stop  offset="0" style="stop-color:#BC9CFF"/>
	<stop  offset="1" style="stop-color:#8BA4F9"/>
</linearGradient>
<path fill="url(#SVGID_1_)" d="M20,40C9,40,0,31,0,20S9,0,20,0s20,9,20,20S31,40,20,40z M20,2.4C10.3,2.4,2.4,10.3,2.4,20
	S10.3,37.6,20,37.6S37.6,29.7,37.6,20S29.7,2.4,20,2.4z"/>
<linearGradient id="SVGID_2_" gradientUnits="userSpaceOnUse" x1="15.285" y1="26.7371" x2="15.285" y2="14.9724" gradientTransform="matrix(1 0 0 -1 0 42)">
	<stop  offset="0" style="stop-color:#BC9CFF"/>
	<stop  offset="1" style="stop-color:#8BA4F9"/>
</linearGradient>
<path fill="url(#SVGID_2_)" d="M20,27c-0.6,0-1.2-0.5-1.2-1.2c0-4.5-3.7-8.2-8.2-8.2c-0.6,0-1.2-0.5-1.2-1.2c0-0.6,0.5-1.2,1.2-1.2
	c5.9,0,10.6,4.7,10.6,10.6C21.2,26.5,20.6,27,20,27z"/>
<linearGradient id="SVGID_3_" gradientUnits="userSpaceOnUse" x1="25.9449" y1="26.7371" x2="25.9449" y2="20.8253" gradientTransform="matrix(1 0 0 -1 0 42)">
	<stop  offset="0" style="stop-color:#6FCF97"/>
	<stop  offset="1" style="stop-color:#66D2EA"/>
</linearGradient>
<path fill="url(#SVGID_3_)" d="M30.5,16.4c0,0.6-0.5,1.2-1.2,1.2c-2.8,0-5.3,1.4-6.8,3.6c-0.3-0.8-0.7-1.6-1.2-2.3
	c1.9-2.2,4.8-3.6,7.9-3.6C30,15.3,30.5,15.8,30.5,16.4z"/>
</svg>
